<?xml version="1.0" encoding="UTF-8" standalone="no"?><svg xmlns="http://www.w3.org/2000/svg" xmlns:xlink="http://www.w3.org/1999/xlink" contentScriptType="application/ecmascript" contentStyleType="text/css" height="1315px" preserveAspectRatio="none" style="width:803px;height:1315px;" version="1.1" viewBox="0 0 803 1315" width="803px" zoomAndPan="magnify"><defs><filter height="300%" id="f1adb2teopp0up" width="300%" x="-1" y="-1"><feGaussianBlur result="blurOut" stdDeviation="2.0"/><feColorMatrix in="blurOut" result="blurOut2" type="matrix" values="0 0 0 0 0 0 0 0 0 0 0 0 0 0 0 0 0 0 .4 0"/><feOffset dx="4.0" dy="4.0" in="blurOut2" result="blurOut3"/><feBlend in="SourceGraphic" in2="blurOut3" mode="normal"/></filter></defs><g><!--cluster Acesso_Publico--><polygon fill="#FFFFFF" filter="url(#f1adb2teopp0up)" points="191,39,319,39,326,61.2969,382,61.2969,382,256,191,256,191,39" style="stroke: #000000; stroke-width: 1.5;"/><line style="stroke: #000000; stroke-width: 1.5;" x1="191" x2="326" y1="61.2969" y2="61.2969"/><text fill="#000000" font-family="sans-serif" font-size="14" font-weight="bold" lengthAdjust="spacingAndGlyphs" textLength="122" x="195" y="53.9951">Acesso_Publico</text><!--cluster Acesso_Restrito--><polygon fill="#FFFFFF" filter="url(#f1adb2teopp0up)" points="461,24,594,24,601,46.2969,781,46.2969,781,1303,461,1303,461,24" style="stroke: #000000; stroke-width: 1.5;"/><line style="stroke: #000000; stroke-width: 1.5;" x1="461" x2="601" y1="46.2969" y2="46.2969"/><text fill="#000000" font-family="sans-serif" font-size="14" font-weight="bold" lengthAdjust="spacingAndGlyphs" textLength="127" x="465" y="38.9951">Acesso_Restrito</text><ellipse cx="286.669" cy="89.0236" fill="#FEFECE" filter="url(#f1adb2teopp0up)" rx="49.669" ry="14.5236" style="stroke: #A80036; stroke-width: 1.5;"/><text fill="#000000" font-family="sans-serif" font-size="14" lengthAdjust="spacingAndGlyphs" textLength="66" x="253.669" y="93.6721">Cadastrar</text><ellipse cx="286.663" cy="153.0236" fill="#FEFECE" filter="url(#f1adb2teopp0up)" rx="29.163" ry="14.5236" style="stroke: #A80036; stroke-width: 1.5;"/><text fill="#000000" font-family="sans-serif" font-size="14" lengthAdjust="spacingAndGlyphs" textLength="37" x="268.163" y="157.6721">Login</text><ellipse cx="286.2901" cy="220.758" fill="#FEFECE" filter="url(#f1adb2teopp0up)" rx="79.2901" ry="18.258" style="stroke: #A80036; stroke-width: 1.5;"/><text fill="#000000" font-family="sans-serif" font-size="14" lengthAdjust="spacingAndGlyphs" textLength="129" x="221.7901" y="225.4065">Esqueceu a senha</text><ellipse cx="621.1672" cy="1206.1334" fill="#FEFECE" filter="url(#f1adb2teopp0up)" rx="68.6672" ry="16.1334" style="stroke: #A80036; stroke-width: 1.5;"/><text fill="#000000" font-family="sans-serif" font-size="14" lengthAdjust="spacingAndGlyphs" textLength="103" x="569.6672" y="1210.7819">Trocar a senha</text><ellipse cx="621.1985" cy="1272.0236" fill="#FEFECE" filter="url(#f1adb2teopp0up)" rx="32.6985" ry="14.5236" style="stroke: #A80036; stroke-width: 1.5;"/><text fill="#000000" font-family="sans-serif" font-size="14" lengthAdjust="spacingAndGlyphs" textLength="42" x="600.1985" y="1276.6721">Logoff</text><ellipse cx="621.1635" cy="166.1327" fill="#FEFECE" filter="url(#f1adb2teopp0up)" rx="86.1635" ry="19.6327" style="stroke: #A80036; stroke-width: 1.5;"/><text fill="#000000" font-family="sans-serif" font-size="14" lengthAdjust="spacingAndGlyphs" textLength="145" x="548.6635" y="170.7811">Requisitar Formulario</text><ellipse cx="621.1177" cy="244.1235" fill="#FEFECE" filter="url(#f1adb2teopp0up)" rx="103.6177" ry="23.1235" style="stroke: #A80036; stroke-width: 1.5;"/><text fill="#000000" font-family="sans-serif" font-size="14" lengthAdjust="spacingAndGlyphs" textLength="184" x="529.1177" y="248.772">Acompanhar Requirimento</text><ellipse cx="621.2013" cy="330.9403" fill="#FEFECE" filter="url(#f1adb2teopp0up)" rx="130.2013" ry="28.4403" style="stroke: #A80036; stroke-width: 1.5;"/><text fill="#000000" font-family="sans-serif" font-size="14" lengthAdjust="spacingAndGlyphs" textLength="241" x="500.7013" y="335.5887">Upload de Termo de Compromisso</text><ellipse cx="620.9883" cy="413.0977" fill="#FEFECE" filter="url(#f1adb2teopp0up)" rx="80.9883" ry="18.5977" style="stroke: #A80036; stroke-width: 1.5;"/><text fill="#000000" font-family="sans-serif" font-size="14" lengthAdjust="spacingAndGlyphs" textLength="133" x="554.4883" y="417.7461">Submeter Relatorio</text><ellipse cx="621.1957" cy="577.8391" fill="#FEFECE" filter="url(#f1adb2teopp0up)" rx="114.6957" ry="25.3391" style="stroke: #A80036; stroke-width: 1.5;"/><text fill="#000000" font-family="sans-serif" font-size="14" lengthAdjust="spacingAndGlyphs" textLength="208" x="517.1957" y="582.4876">Avaliar Relatorio Final do Aluno</text><ellipse cx="621.0139" cy="670.2028" fill="#FEFECE" filter="url(#f1adb2teopp0up)" rx="144.0139" ry="31.2028" style="stroke: #A80036; stroke-width: 1.5;"/><text fill="#000000" font-family="sans-serif" font-size="14" lengthAdjust="spacingAndGlyphs" textLength="270" x="486.0139" y="674.8512">Consultar Acompanhamento de Alunos</text><ellipse cx="620.9604" cy="757.9921" fill="#FEFECE" filter="url(#f1adb2teopp0up)" rx="95.4604" ry="21.4921" style="stroke: #A80036; stroke-width: 1.5;"/><text fill="#000000" font-family="sans-serif" font-size="14" lengthAdjust="spacingAndGlyphs" textLength="166" x="537.9604" y="762.6405">Consultar Relatorio Final</text><ellipse cx="621.2318" cy="835.2464" fill="#FEFECE" filter="url(#f1adb2teopp0up)" rx="89.2318" ry="20.2464" style="stroke: #A80036; stroke-width: 1.5;"/><text fill="#000000" font-family="sans-serif" font-size="14" lengthAdjust="spacingAndGlyphs" textLength="152" x="545.2318" y="839.8948">Listar Relatorios Finais</text><ellipse cx="621.0368" cy="909.8074" fill="#FEFECE" filter="url(#f1adb2teopp0up)" rx="87.0368" ry="19.8074" style="stroke: #A80036; stroke-width: 1.5;"/><text fill="#000000" font-family="sans-serif" font-size="14" lengthAdjust="spacingAndGlyphs" textLength="147" x="547.5368" y="914.4558">Listar Requerimentos</text><ellipse cx="620.8093" cy="986.7619" fill="#FEFECE" filter="url(#f1adb2teopp0up)" rx="96.8093" ry="21.7619" style="stroke: #A80036; stroke-width: 1.5;"/><text fill="#000000" font-family="sans-serif" font-size="14" lengthAdjust="spacingAndGlyphs" textLength="169" x="536.3093" y="991.4103">Consultar Requerimento</text><ellipse cx="620.7712" cy="1062.8542" fill="#FEFECE" filter="url(#f1adb2teopp0up)" rx="82.2712" ry="18.8542" style="stroke: #A80036; stroke-width: 1.5;"/><text fill="#000000" font-family="sans-serif" font-size="14" lengthAdjust="spacingAndGlyphs" textLength="136" x="552.7712" y="1067.5027">Cadastrar Professor</text><ellipse cx="621.0624" cy="1136.0125" fill="#FEFECE" filter="url(#f1adb2teopp0up)" rx="80.5624" ry="18.5125" style="stroke: #A80036; stroke-width: 1.5;"/><text fill="#000000" font-family="sans-serif" font-size="14" lengthAdjust="spacingAndGlyphs" textLength="132" x="555.0624" y="1140.6609">Remover Professor</text><ellipse cx="620.9711" cy="484.0942" fill="#FEFECE" filter="url(#f1adb2teopp0up)" rx="73.4711" ry="17.0942" style="stroke: #A80036; stroke-width: 1.5;"/><text fill="#000000" font-family="sans-serif" font-size="14" lengthAdjust="spacingAndGlyphs" textLength="115" x="563.4711" y="488.7427">Assinar Relatorio</text><ellipse cx="620.7711" cy="76.7542" fill="#FEFECE" filter="url(#f1adb2teopp0up)" rx="76.7711" ry="17.7542" style="stroke: #A80036; stroke-width: 1.5;"/><text fill="#000000" font-family="sans-serif" font-size="14" lengthAdjust="spacingAndGlyphs" textLength="123" x="559.2711" y="81.4027">Solicitar Professor</text><!--entity NLogado--><ellipse cx="75" cy="121.5" fill="#FEFECE" filter="url(#f1adb2teopp0up)" rx="8" ry="8" style="stroke: #A80036; stroke-width: 2.0;"/><path d="M75,129.5 L75,156.5 M62,137.5 L88,137.5 M75,156.5 L62,171.5 M75,156.5 L88,171.5 " fill="none" filter="url(#f1adb2teopp0up)" style="stroke: #A80036; stroke-width: 2.0;"/><text fill="#000000" font-family="sans-serif" font-size="14" lengthAdjust="spacingAndGlyphs" textLength="138" x="6" y="191.4951">Usuario Nao Logado</text><!--entity Logado--><ellipse cx="75" cy="934.5" fill="#FEFECE" filter="url(#f1adb2teopp0up)" rx="8" ry="8" style="stroke: #A80036; stroke-width: 2.0;"/><path d="M75,942.5 L75,969.5 M62,950.5 L88,950.5 M75,969.5 L62,984.5 M75,969.5 L88,984.5 " fill="none" filter="url(#f1adb2teopp0up)" style="stroke: #A80036; stroke-width: 2.0;"/><text fill="#000000" font-family="sans-serif" font-size="14" lengthAdjust="spacingAndGlyphs" textLength="107" x="21.5" y="1004.4951">Usuario Logado</text><!--entity Aluno--><ellipse cx="286.5" cy="299.5" fill="#FEFECE" filter="url(#f1adb2teopp0up)" rx="8" ry="8" style="stroke: #A80036; stroke-width: 2.0;"/><path d="M286.5,307.5 L286.5,334.5 M273.5,315.5 L299.5,315.5 M286.5,334.5 L273.5,349.5 M286.5,334.5 L299.5,349.5 " fill="none" filter="url(#f1adb2teopp0up)" style="stroke: #A80036; stroke-width: 2.0;"/><text fill="#000000" font-family="sans-serif" font-size="14" lengthAdjust="spacingAndGlyphs" textLength="39" x="267" y="369.4951">Aluno</text><!--entity Professor--><ellipse cx="286.5" cy="638.5" fill="#FEFECE" filter="url(#f1adb2teopp0up)" rx="8" ry="8" style="stroke: #A80036; stroke-width: 2.0;"/><path d="M286.5,646.5 L286.5,673.5 M273.5,654.5 L299.5,654.5 M286.5,673.5 L273.5,688.5 M286.5,673.5 L299.5,688.5 " fill="none" filter="url(#f1adb2teopp0up)" style="stroke: #A80036; stroke-width: 2.0;"/><text fill="#000000" font-family="sans-serif" font-size="14" lengthAdjust="spacingAndGlyphs" textLength="143" x="215" y="708.4951">Professor Orientador</text><!--entity Admin--><ellipse cx="286.5" cy="934.5" fill="#FEFECE" filter="url(#f1adb2teopp0up)" rx="8" ry="8" style="stroke: #A80036; stroke-width: 2.0;"/><path d="M286.5,942.5 L286.5,969.5 M273.5,950.5 L299.5,950.5 M286.5,969.5 L273.5,984.5 M286.5,969.5 L299.5,984.5 " fill="none" filter="url(#f1adb2teopp0up)" style="stroke: #A80036; stroke-width: 2.0;"/><text fill="#000000" font-family="sans-serif" font-size="14" lengthAdjust="spacingAndGlyphs" textLength="85" x="244" y="1004.4951">ADM Divisao</text><!--link Logado to Aluno--><path d="M93.22,904.98 C113.53,833.98 148.86,713.4 183,611 C211.41,525.8 248.39,427.47 269.28,372.95 " fill="none" id="Logado-Aluno" style="stroke: #A80036; stroke-width: 1.0;"/><polygon fill="none" points="99.88,907.17,87.66,924.49,86.41,903.33,99.88,907.17" style="stroke: #A80036; stroke-width: 1.0;"/><!--link Logado to Professor--><path d="M117.3,907.65 C158.22,849.83 219.89,762.7 256.08,711.57 " fill="none" id="Logado-Professor" style="stroke: #A80036; stroke-width: 1.0;"/><polygon fill="none" points="122.84,911.94,105.57,924.22,111.41,903.85,122.84,911.94" style="stroke: #A80036; stroke-width: 1.0;"/><!--link Logado to Admin--><path d="M148.71,966 C180.49,966 216.62,966 243.77,966 " fill="none" id="Logado-Admin" style="stroke: #A80036; stroke-width: 1.0;"/><polygon fill="none" points="148.6,973,128.6,966,148.6,959,148.6,973" style="stroke: #A80036; stroke-width: 1.0;"/><!--link NLogado to Cadastrar--><path d="M144.02,132.22 C178.01,121.84 217.92,109.64 246.67,100.86 " fill="none" id="NLogado-Cadastrar" style="stroke: #A80036; stroke-width: 1.0;"/><polygon fill="#A80036" points="251.54,99.37,241.7651,98.1649,246.7568,100.8264,244.0953,105.818,251.54,99.37" style="stroke: #A80036; stroke-width: 1.0;"/><!--link NLogado to Login--><path d="M144.02,153 C180.24,153 223.16,153 252.16,153 " fill="none" id="NLogado-Login" style="stroke: #A80036; stroke-width: 1.0;"/><polygon fill="#A80036" points="257.4,153,248.4,149,252.4,153,248.4,157,257.4,153" style="stroke: #A80036; stroke-width: 1.0;"/><!--link NLogado to Esqueceu a senha--><path d="M144.02,175.08 C173.38,184.61 207.14,195.57 234.32,204.39 " fill="none" id="NLogado-Esqueceu a senha" style="stroke: #A80036; stroke-width: 1.0;"/><polygon fill="#A80036" points="239.31,206.01,231.983,199.4286,234.5539,204.4675,229.515,207.0383,239.31,206.01" style="stroke: #A80036; stroke-width: 1.0;"/><!--link UC7 to Assinar Relatorio--><path d="M621,552.31 C621,537.92 621,520.14 621,506.32 " fill="none" id="UC7-Assinar Relatorio" style="stroke: #A80036; stroke-width: 1.0; stroke-dasharray: 7.0,7.0;"/><polygon fill="#A80036" points="621,501.05,617,510.05,621,506.05,625,510.05,621,501.05" style="stroke: #A80036; stroke-width: 1.0;"/><text fill="#000000" font-family="sans-serif" font-size="13" lengthAdjust="spacingAndGlyphs" textLength="45" x="587" y="531.3169">include</text><!--link UC9 to Assinar Relatorio--><path d="M527.16,753.67 C500.21,748.04 472.79,737.43 453,718 C425,690.51 435.93,671.43 431,632.5 C425.42,588.43 422.03,566.85 453,535 C477.31,510 513.43,497.16 545.96,490.61 " fill="none" id="UC9-Assinar Relatorio" style="stroke: #A80036; stroke-width: 1.0; stroke-dasharray: 7.0,7.0;"/><polygon fill="#A80036" points="551.15,489.61,541.5575,487.3775,546.2396,490.5521,543.0649,495.2342,551.15,489.61" style="stroke: #A80036; stroke-width: 1.0;"/><text fill="#000000" font-family="sans-serif" font-size="13" lengthAdjust="spacingAndGlyphs" textLength="45" x="399" y="628.5669">include</text><!--link UC3 to Solicitar Professor--><path d="M621,146.25 C621,132.66 621,114.55 621,100.26 " fill="none" id="UC3-Solicitar Professor" style="stroke: #A80036; stroke-width: 1.0; stroke-dasharray: 7.0,7.0;"/><polygon fill="#A80036" points="621,95.18,617,104.18,621,100.18,625,104.18,621,95.18" style="stroke: #A80036; stroke-width: 1.0;"/><text fill="#000000" font-family="sans-serif" font-size="13" lengthAdjust="spacingAndGlyphs" textLength="78" x="570.5" y="125.3169">dependency</text><!--link Logado to UC1--><path d="M128.52,1001.39 C199.23,1047.44 330.38,1127.28 453,1172 C485.85,1183.98 523.96,1192.15 555.47,1197.46 " fill="none" id="Logado-UC1" style="stroke: #A80036; stroke-width: 1.0;"/><polygon fill="#A80036" points="560.47,1198.29,552.2424,1192.8764,555.5369,1197.475,550.9383,1200.7694,560.47,1198.29" style="stroke: #A80036; stroke-width: 1.0;"/><!--link Logado to UC2--><path d="M89.39,1007.58 C105.2,1050.25 135.52,1115.67 183,1154 C304.91,1252.42 501.99,1269.11 583.21,1271.68 " fill="none" id="Logado-UC2" style="stroke: #A80036; stroke-width: 1.0;"/><polygon fill="#A80036" points="588.39,1271.83,579.5083,1267.5739,583.3921,1271.6868,579.2791,1275.5706,588.39,1271.83" style="stroke: #A80036; stroke-width: 1.0;"/><!--link Aluno to UC3--><path d="M306.3,317.82 C327.07,303.13 361.38,278.47 390,256 C418.78,233.41 420.19,219.2 453,203 C479.57,189.88 510.8,181.36 539.02,175.86 " fill="none" id="Aluno-UC3" style="stroke: #A80036; stroke-width: 1.0;"/><polygon fill="#A80036" points="544.25,174.87,534.6638,172.6106,539.3369,175.7983,536.1492,180.4715,544.25,174.87" style="stroke: #A80036; stroke-width: 1.0;"/><!--link Aluno to UC4--><path d="M306.31,325.57 C336.96,316.77 399.63,298.97 453,285 C482.9,277.18 515.92,268.98 544.65,261.98 " fill="none" id="Aluno-UC4" style="stroke: #A80036; stroke-width: 1.0;"/><polygon fill="#A80036" points="549.59,260.78,539.8981,259.0285,544.7326,261.9658,541.7954,266.8003,549.59,260.78" style="stroke: #A80036; stroke-width: 1.0;"/><!--link Aluno to UC5--><path d="M306.33,331 C340.81,331 416.85,331 485.42,331 " fill="none" id="Aluno-UC5" style="stroke: #A80036; stroke-width: 1.0;"/><polygon fill="#A80036" points="490.76,331,481.76,327,485.76,331,481.76,335,490.76,331" style="stroke: #A80036; stroke-width: 1.0;"/><!--link Aluno to UC6--><path d="M306.27,336.6 C336.86,345.65 399.43,363.79 453,377 C486.35,385.22 523.7,393.37 554.61,399.83 " fill="none" id="Aluno-UC6" style="stroke: #A80036; stroke-width: 1.0;"/><polygon fill="#A80036" points="559.51,400.85,551.5076,395.1087,554.6138,399.8365,549.886,402.9427,559.51,400.85" style="stroke: #A80036; stroke-width: 1.0;"/><!--link Professor to UC7--><path d="M350.68,628.45 C365.68,620.17 381.99,612.38 398,607 C431.63,595.71 469.49,588.78 504.3,584.54 " fill="none" id="Professor-UC7" style="stroke: #A80036; stroke-width: 1.0;"/><polygon fill="#A80036" points="509.41,583.93,500.0028,581.0137,504.4445,584.5167,500.9415,588.9584,509.41,583.93" style="stroke: #A80036; stroke-width: 1.0;"/><!--link Professor to UC8--><path d="M358.01,670 C391.13,670 431.93,670 471.38,670 " fill="none" id="Professor-UC8" style="stroke: #A80036; stroke-width: 1.0;"/><polygon fill="#A80036" points="476.69,670,467.69,666,471.69,670,467.69,674,476.69,670" style="stroke: #A80036; stroke-width: 1.0;"/><!--link Admin to UC9--><path d="M317.12,924.28 C346.98,885.38 396.64,828.72 453,797 C476.81,783.6 505.02,774.79 531.41,769.01 " fill="none" id="Admin-UC9" style="stroke: #A80036; stroke-width: 1.0;"/><polygon fill="#A80036" points="536.31,767.96,526.6745,765.9211,531.4195,769.0008,528.3398,773.7459,536.31,767.96" style="stroke: #A80036; stroke-width: 1.0;"/><!--link Admin to UC10--><path d="M329.31,937.58 C361.78,916.69 408.59,889.09 453,872 C481.3,861.11 513.58,853.03 542.18,847.24 " fill="none" id="Admin-UC10" style="stroke: #A80036; stroke-width: 1.0;"/><polygon fill="#A80036" points="547.1,846.25,537.4952,844.0712,542.1949,847.2196,539.0465,851.9194,547.1,846.25" style="stroke: #A80036; stroke-width: 1.0;"/><!--link Admin to UC11--><path d="M329.27,958.96 C383.33,949.86 478.47,933.84 545.15,922.61 " fill="none" id="Admin-UC11" style="stroke: #A80036; stroke-width: 1.0;"/><polygon fill="#A80036" points="550.3,921.74,540.7614,919.2875,545.3692,922.5689,542.0877,927.1767,550.3,921.74" style="stroke: #A80036; stroke-width: 1.0;"/><!--link Admin to UC12--><path d="M329.27,968.64 C377.29,971.67 457.7,976.75 521.81,980.8 " fill="none" id="Admin-UC12" style="stroke: #A80036; stroke-width: 1.0;"/><polygon fill="#A80036" points="527.17,981.14,518.4395,976.5817,522.1799,980.8254,517.9362,984.5659,527.17,981.14" style="stroke: #A80036; stroke-width: 1.0;"/><!--link Admin to UC13--><path d="M329.18,982.81 C362.35,995.78 410.15,1013.54 453,1026 C485.08,1035.33 521.21,1043.6 551.64,1049.95 " fill="none" id="Admin-UC13" style="stroke: #A80036; stroke-width: 1.0;"/><polygon fill="#A80036" points="556.86,1051.03,548.8576,1045.2887,551.9638,1050.0165,547.236,1053.1227,556.86,1051.03" style="stroke: #A80036; stroke-width: 1.0;"/><!--link Admin to UC14--><path d="M327.99,1007.53 C359.41,1037.36 405.48,1076.19 453,1099 C481.22,1112.54 514.51,1121.21 543.91,1126.71 " fill="none" id="Admin-UC14" style="stroke: #A80036; stroke-width: 1.0;"/><polygon fill="#A80036" points="548.98,1127.64,540.8478,1122.0841,544.0618,1126.7393,539.4067,1129.9533,548.98,1127.64" style="stroke: #A80036; stroke-width: 1.0;"/><!--
@startuml diagrama_de_caso_de_uso
skinparam actorStyle awesome
left to right direction

"Usuario Nao Logado" as NLogado
"Usuario Logado" as Logado
"Aluno" as Aluno
"Professor Orientador" as Professor	
"ADM Divisao" as Admin

Logado <|- - Aluno
Logado <|- - Professor
Logado <|- - Admin

package Acesso_Publico {
  NLogado - -> (Cadastrar)
  NLogado - -> (Login)
  NLogado - -> (Esqueceu a senha)
}

package Acesso_Restrito {
  usecase "Trocar a senha" as UC1
  usecase "Logoff" as UC2 
  usecase "Requisitar Formulario" as UC3
  usecase "Acompanhar Requirimento" as UC4
  usecase "Upload de Termo de Compromisso" as UC5
  usecase "Submeter Relatorio" as UC6
  usecase "Avaliar Relatorio Final do Aluno" as UC7
  usecase "Consultar Acompanhamento de Alunos" as UC8
  usecase "Consultar Relatorio Final" as UC9
  usecase "Listar Relatorios Finais" as UC10
  usecase "Listar Requerimentos" as UC11
  usecase "Consultar Requerimento" as UC12
  usecase "Cadastrar Professor" as UC13
  usecase "Remover Professor" as UC14
  UC7 .> (Assinar Relatorio) : include
  UC9 .> (Assinar Relatorio) : include
  UC3 .> (Solicitar Professor) : dependency 
}

Logado - -> UC1
Logado - -> UC2
Aluno - -> UC3
Aluno - -> UC4
Aluno - -> UC5
Aluno - -> UC6 
Professor - -> UC7
Professor - -> UC8
Admin - -> UC9
Admin - -> UC10
Admin - -> UC11
Admin - -> UC12
Admin - -> UC13
Admin - -> UC14
@enduml

PlantUML version 1.2018.13(Mon Nov 26 14:11:51 BRT 2018)
(GPL source distribution)
Java Runtime: OpenJDK Runtime Environment
JVM: OpenJDK 64-Bit Server VM
Java Version: 11.0.15+10-Ubuntu-0ubuntu0.20.04.1
Operating System: Linux
OS Version: 5.13.0-44-generic
Default Encoding: UTF-8
Language: pt
Country: BR
--></g></svg>